<svg width="38" height="50" viewBox="0 0 38 50" fill="none" xmlns="http://www.w3.org/2000/svg">
<path d="M16.823 48.9912C2.63379 28.421 0 26.3099 0 18.75C0 8.39463 8.39463 0 18.75 0C29.1054 0 37.5 8.39463 37.5 18.75C37.5 26.3099 34.8662 28.421 20.6769 48.9912C19.7458 50.3363 17.7541 50.3362 16.823 48.9912ZM18.75 26.5625C23.0647 26.5625 26.5625 23.0647 26.5625 18.75C26.5625 14.4353 23.0647 10.9375 18.75 10.9375C14.4353 10.9375 10.9375 14.4353 10.9375 18.75C10.9375 23.0647 14.4353 26.5625 18.75 26.5625Z" fill="#4F3B0D"/>
<circle cx="18.5" cy="19.5" r="12.5" fill="#F7F7F7"/>
<path d="M25.125 15.5C25.3322 15.5 25.5 15.3322 25.5 15.125V14.375C25.5 14.1678 25.3322 14 25.125 14H12.375C12.1678 14 12 14.1678 12 14.375V15.125C12 15.3322 12.1678 15.5 12.375 15.5H12.7495V24.5H12.375C12.1678 24.5 12 24.6678 12 24.875V25.625C12 25.8322 12.1678 26 12.375 26H18V24.125C18 23.9187 18.1687 23.75 18.375 23.75H19.125C19.3313 23.75 19.5 23.9187 19.5 24.125V26H25.125C25.3322 26 25.5 25.8322 25.5 25.625V24.875C25.5 24.6678 25.3322 24.5 25.125 24.5H24.75V15.5H25.125ZM18 16.55C18 16.4 18.15 16.25 18.3 16.25H19.2C19.35 16.25 19.5 16.4 19.5 16.55V17.45C19.5 17.6 19.35 17.75 19.2 17.75H18.3C18.15 17.75 18 17.6 18 17.45V16.55ZM18 18.8C18 18.65 18.15 18.5 18.3 18.5H19.2C19.35 18.5 19.5 18.65 19.5 18.8V19.7C19.5 19.85 19.35 20 19.2 20H18.3C18.15 20 18 19.85 18 19.7V18.8ZM15 16.55C15 16.4 15.15 16.25 15.3 16.25H16.2C16.35 16.25 16.5 16.4 16.5 16.55V17.45C16.5 17.6 16.35 17.75 16.2 17.75H15.3C15.15 17.75 15 17.6 15 17.45V16.55ZM16.2 20H15.3C15.15 20 15 19.85 15 19.7V18.8C15 18.65 15.15 18.5 15.3 18.5H16.2C16.35 18.5 16.5 18.65 16.5 18.8V19.7C16.5 19.85 16.35 20 16.2 20ZM16.5 23C16.5 21.7573 17.5073 20.75 18.75 20.75C19.9927 20.75 21 21.7573 21 23H16.5ZM22.5 19.7C22.5 19.85 22.35 20 22.2 20H21.3C21.15 20 21 19.85 21 19.7V18.8C21 18.65 21.15 18.5 21.3 18.5H22.2C22.35 18.5 22.5 18.65 22.5 18.8V19.7ZM22.5 17.45C22.5 17.6 22.35 17.75 22.2 17.75H21.3C21.15 17.75 21 17.6 21 17.45V16.55C21 16.4 21.15 16.25 21.3 16.25H22.2C22.35 16.25 22.5 16.4 22.5 16.55V17.45Z" fill="#BA925E"/>
</svg>
